<mxfile host="app.diagrams.net" agent="Mozilla/5.0 (Windows NT 10.0; Win64; x64) AppleWebKit/537.36 (KHTML, like Gecko) Chrome/134.0.0.0 Safari/537.36" version="24.7.6">
  <diagram name="ページ1" id="S9UauPsGFqInviCS1K9k">
    <mxGraphModel dx="1156" dy="915" grid="1" gridSize="10" guides="1" tooltips="1" connect="1" arrows="1" fold="1" page="1" pageScale="1" pageWidth="827" pageHeight="1169" math="0" shadow="0">
      <root>
        <mxCell id="0" />
        <mxCell id="1" parent="0" />
        <mxCell id="sbXcp2H4qCED0aTFGBLQ-10" style="edgeStyle=orthogonalEdgeStyle;rounded=0;orthogonalLoop=1;jettySize=auto;html=1;exitX=0.75;exitY=1;exitDx=0;exitDy=0;" edge="1" parent="1" source="sbXcp2H4qCED0aTFGBLQ-1">
          <mxGeometry relative="1" as="geometry">
            <mxPoint x="1060" y="450" as="targetPoint" />
          </mxGeometry>
        </mxCell>
        <mxCell id="sbXcp2H4qCED0aTFGBLQ-1" value="Main&amp;nbsp;&lt;span style=&quot;background-color: initial;&quot;&gt;Display&lt;/span&gt;&lt;div&gt;&lt;span style=&quot;background-color: initial;&quot;&gt;(USB-C, HDMI, DP)&lt;/span&gt;&lt;/div&gt;" style="rounded=0;whiteSpace=wrap;html=1;" vertex="1" parent="1">
          <mxGeometry x="960" y="400" width="120" height="60" as="geometry" />
        </mxCell>
        <mxCell id="sbXcp2H4qCED0aTFGBLQ-2" value="Sub&amp;nbsp;&lt;span style=&quot;background-color: initial;&quot;&gt;Display&lt;/span&gt;&lt;div&gt;&lt;span style=&quot;background-color: initial;&quot;&gt;(HDMI, D-sub)&lt;/span&gt;&lt;/div&gt;" style="rounded=0;whiteSpace=wrap;html=1;" vertex="1" parent="1">
          <mxGeometry x="1190" y="400" width="120" height="60" as="geometry" />
        </mxCell>
        <mxCell id="sbXcp2H4qCED0aTFGBLQ-21" style="edgeStyle=orthogonalEdgeStyle;rounded=0;orthogonalLoop=1;jettySize=auto;html=1;entryX=0.75;entryY=0;entryDx=0;entryDy=0;" edge="1" parent="1" source="sbXcp2H4qCED0aTFGBLQ-4" target="sbXcp2H4qCED0aTFGBLQ-1">
          <mxGeometry relative="1" as="geometry">
            <Array as="points">
              <mxPoint x="1150" y="380" />
              <mxPoint x="1050" y="380" />
            </Array>
          </mxGeometry>
        </mxCell>
        <mxCell id="sbXcp2H4qCED0aTFGBLQ-22" value="HDMI" style="edgeLabel;html=1;align=center;verticalAlign=middle;resizable=0;points=[];" vertex="1" connectable="0" parent="sbXcp2H4qCED0aTFGBLQ-21">
          <mxGeometry x="-0.7238" relative="1" as="geometry">
            <mxPoint as="offset" />
          </mxGeometry>
        </mxCell>
        <mxCell id="sbXcp2H4qCED0aTFGBLQ-4" value="Hub1&lt;div&gt;(HDMI, Dsub)&lt;/div&gt;" style="shape=hexagon;perimeter=hexagonPerimeter2;whiteSpace=wrap;html=1;fixedSize=1;" vertex="1" parent="1">
          <mxGeometry x="1090" y="210" width="120" height="80" as="geometry" />
        </mxCell>
        <mxCell id="sbXcp2H4qCED0aTFGBLQ-5" value="&lt;div&gt;Hub2&lt;/div&gt;&lt;div&gt;(HDMI x 2)&lt;/div&gt;" style="shape=hexagon;perimeter=hexagonPerimeter2;whiteSpace=wrap;html=1;fixedSize=1;" vertex="1" parent="1">
          <mxGeometry x="1120" y="1420" width="120" height="60" as="geometry" />
        </mxCell>
        <mxCell id="sbXcp2H4qCED0aTFGBLQ-8" style="edgeStyle=orthogonalEdgeStyle;rounded=0;orthogonalLoop=1;jettySize=auto;html=1;exitX=0.25;exitY=1;exitDx=0;exitDy=0;entryX=0.25;entryY=0;entryDx=0;entryDy=0;" edge="1" parent="1" source="sbXcp2H4qCED0aTFGBLQ-6" target="sbXcp2H4qCED0aTFGBLQ-1">
          <mxGeometry relative="1" as="geometry">
            <mxPoint x="1040" y="380" as="targetPoint" />
          </mxGeometry>
        </mxCell>
        <mxCell id="sbXcp2H4qCED0aTFGBLQ-11" value="DP" style="edgeLabel;html=1;align=center;verticalAlign=middle;resizable=0;points=[];" vertex="1" connectable="0" parent="sbXcp2H4qCED0aTFGBLQ-8">
          <mxGeometry x="0.2108" y="-2" relative="1" as="geometry">
            <mxPoint as="offset" />
          </mxGeometry>
        </mxCell>
        <mxCell id="sbXcp2H4qCED0aTFGBLQ-12" style="edgeStyle=orthogonalEdgeStyle;rounded=0;orthogonalLoop=1;jettySize=auto;html=1;exitX=0.65;exitY=1;exitDx=0;exitDy=0;exitPerimeter=0;entryX=0.5;entryY=0;entryDx=0;entryDy=0;" edge="1" parent="1" source="sbXcp2H4qCED0aTFGBLQ-6" target="sbXcp2H4qCED0aTFGBLQ-2">
          <mxGeometry relative="1" as="geometry">
            <mxPoint x="1220" y="390" as="targetPoint" />
            <Array as="points">
              <mxPoint x="1048" y="350" />
              <mxPoint x="1250" y="350" />
            </Array>
          </mxGeometry>
        </mxCell>
        <mxCell id="sbXcp2H4qCED0aTFGBLQ-15" value="HDMI" style="edgeLabel;html=1;align=center;verticalAlign=middle;resizable=0;points=[];" vertex="1" connectable="0" parent="sbXcp2H4qCED0aTFGBLQ-12">
          <mxGeometry x="-0.0398" y="-3" relative="1" as="geometry">
            <mxPoint as="offset" />
          </mxGeometry>
        </mxCell>
        <mxCell id="sbXcp2H4qCED0aTFGBLQ-6" value="&lt;span style=&quot;color: rgb(0, 0, 0); font-family: Helvetica; font-size: 12px; font-style: normal; font-variant-ligatures: normal; font-variant-caps: normal; font-weight: 400; letter-spacing: normal; orphans: 2; text-align: center; text-indent: 0px; text-transform: none; widows: 2; word-spacing: 0px; -webkit-text-stroke-width: 0px; white-space: normal; background-color: rgb(251, 251, 251); text-decoration-thickness: initial; text-decoration-style: initial; text-decoration-color: initial; display: inline !important; float: none;&quot;&gt;Desktop&amp;nbsp;&lt;/span&gt;PC&lt;div&gt;(HDMI, DP)&lt;/div&gt;" style="shape=parallelogram;perimeter=parallelogramPerimeter;whiteSpace=wrap;html=1;fixedSize=1;" vertex="1" parent="1">
          <mxGeometry x="970" y="60" width="120" height="60" as="geometry" />
        </mxCell>
        <mxCell id="sbXcp2H4qCED0aTFGBLQ-16" style="edgeStyle=orthogonalEdgeStyle;rounded=0;orthogonalLoop=1;jettySize=auto;html=1;entryX=0.625;entryY=0;entryDx=0;entryDy=0;exitX=0.133;exitY=0.983;exitDx=0;exitDy=0;exitPerimeter=0;" edge="1" parent="1" source="sbXcp2H4qCED0aTFGBLQ-7" target="sbXcp2H4qCED0aTFGBLQ-4">
          <mxGeometry relative="1" as="geometry">
            <mxPoint x="1410" y="120" as="sourcePoint" />
            <Array as="points">
              <mxPoint x="1306" y="170" />
            </Array>
          </mxGeometry>
        </mxCell>
        <mxCell id="sbXcp2H4qCED0aTFGBLQ-17" value="USB-C" style="edgeLabel;html=1;align=center;verticalAlign=middle;resizable=0;points=[];" vertex="1" connectable="0" parent="sbXcp2H4qCED0aTFGBLQ-16">
          <mxGeometry x="0.0857" y="2" relative="1" as="geometry">
            <mxPoint as="offset" />
          </mxGeometry>
        </mxCell>
        <mxCell id="sbXcp2H4qCED0aTFGBLQ-18" style="edgeStyle=orthogonalEdgeStyle;rounded=0;orthogonalLoop=1;jettySize=auto;html=1;exitX=0.642;exitY=1.017;exitDx=0;exitDy=0;entryX=0.5;entryY=0;entryDx=0;entryDy=0;exitPerimeter=0;dashed=1;" edge="1" parent="1" source="sbXcp2H4qCED0aTFGBLQ-7" target="sbXcp2H4qCED0aTFGBLQ-2">
          <mxGeometry relative="1" as="geometry">
            <Array as="points">
              <mxPoint x="1367" y="350" />
              <mxPoint x="1250" y="350" />
            </Array>
          </mxGeometry>
        </mxCell>
        <mxCell id="sbXcp2H4qCED0aTFGBLQ-19" value="HDMI" style="edgeLabel;html=1;align=center;verticalAlign=middle;resizable=0;points=[];" vertex="1" connectable="0" parent="sbXcp2H4qCED0aTFGBLQ-18">
          <mxGeometry x="0.325" y="3" relative="1" as="geometry">
            <mxPoint as="offset" />
          </mxGeometry>
        </mxCell>
        <mxCell id="sbXcp2H4qCED0aTFGBLQ-7" value="Note PC&lt;div&gt;(USB-C, HDMI)&lt;/div&gt;" style="shape=parallelogram;perimeter=parallelogramPerimeter;whiteSpace=wrap;html=1;fixedSize=1;" vertex="1" parent="1">
          <mxGeometry x="1290" y="60" width="120" height="60" as="geometry" />
        </mxCell>
        <mxCell id="sbXcp2H4qCED0aTFGBLQ-23" value="&lt;u&gt;&lt;font style=&quot;font-size: 24px;&quot;&gt;〇現在の構成&lt;/font&gt;&lt;/u&gt;" style="text;html=1;align=center;verticalAlign=middle;resizable=0;points=[];autosize=1;strokeColor=none;fillColor=none;" vertex="1" parent="1">
          <mxGeometry x="840" y="10" width="170" height="40" as="geometry" />
        </mxCell>
        <mxCell id="sbXcp2H4qCED0aTFGBLQ-24" style="edgeStyle=orthogonalEdgeStyle;rounded=0;orthogonalLoop=1;jettySize=auto;html=1;exitX=0.75;exitY=1;exitDx=0;exitDy=0;" edge="1" parent="1" source="sbXcp2H4qCED0aTFGBLQ-25">
          <mxGeometry relative="1" as="geometry">
            <mxPoint x="1080" y="1720" as="targetPoint" />
          </mxGeometry>
        </mxCell>
        <mxCell id="sbXcp2H4qCED0aTFGBLQ-25" value="Main&amp;nbsp;&lt;span style=&quot;background-color: initial;&quot;&gt;Display&lt;/span&gt;&lt;div&gt;&lt;span style=&quot;background-color: initial;&quot;&gt;(USB-C, HDMI, DP)&lt;/span&gt;&lt;/div&gt;" style="rounded=0;whiteSpace=wrap;html=1;" vertex="1" parent="1">
          <mxGeometry x="980" y="1670" width="120" height="60" as="geometry" />
        </mxCell>
        <mxCell id="sbXcp2H4qCED0aTFGBLQ-26" value="Sub&amp;nbsp;&lt;span style=&quot;background-color: initial;&quot;&gt;Display&lt;/span&gt;&lt;div&gt;&lt;span style=&quot;background-color: initial;&quot;&gt;(HDMI, D-sub)&lt;/span&gt;&lt;/div&gt;" style="rounded=0;whiteSpace=wrap;html=1;" vertex="1" parent="1">
          <mxGeometry x="1190" y="1670" width="120" height="60" as="geometry" />
        </mxCell>
        <mxCell id="sbXcp2H4qCED0aTFGBLQ-27" style="edgeStyle=orthogonalEdgeStyle;rounded=0;orthogonalLoop=1;jettySize=auto;html=1;entryX=0.75;entryY=0;entryDx=0;entryDy=0;exitX=0.375;exitY=1;exitDx=0;exitDy=0;" edge="1" parent="1" source="sbXcp2H4qCED0aTFGBLQ-5" target="sbXcp2H4qCED0aTFGBLQ-25">
          <mxGeometry relative="1" as="geometry">
            <Array as="points">
              <mxPoint x="1160" y="1500" />
              <mxPoint x="1160" y="1590" />
              <mxPoint x="1060" y="1590" />
            </Array>
            <mxPoint x="1240" y="1520" as="sourcePoint" />
          </mxGeometry>
        </mxCell>
        <mxCell id="sbXcp2H4qCED0aTFGBLQ-28" value="HDMI" style="edgeLabel;html=1;align=center;verticalAlign=middle;resizable=0;points=[];" vertex="1" connectable="0" parent="sbXcp2H4qCED0aTFGBLQ-27">
          <mxGeometry x="-0.7238" relative="1" as="geometry">
            <mxPoint as="offset" />
          </mxGeometry>
        </mxCell>
        <mxCell id="sbXcp2H4qCED0aTFGBLQ-30" style="edgeStyle=orthogonalEdgeStyle;rounded=0;orthogonalLoop=1;jettySize=auto;html=1;exitX=0.25;exitY=1;exitDx=0;exitDy=0;entryX=0.25;entryY=0;entryDx=0;entryDy=0;" edge="1" parent="1" source="sbXcp2H4qCED0aTFGBLQ-34" target="sbXcp2H4qCED0aTFGBLQ-25">
          <mxGeometry relative="1" as="geometry">
            <mxPoint x="1050" y="1590" as="targetPoint" />
          </mxGeometry>
        </mxCell>
        <mxCell id="sbXcp2H4qCED0aTFGBLQ-31" value="DP" style="edgeLabel;html=1;align=center;verticalAlign=middle;resizable=0;points=[];" vertex="1" connectable="0" parent="sbXcp2H4qCED0aTFGBLQ-30">
          <mxGeometry x="0.2108" y="-2" relative="1" as="geometry">
            <mxPoint as="offset" />
          </mxGeometry>
        </mxCell>
        <mxCell id="sbXcp2H4qCED0aTFGBLQ-32" style="edgeStyle=orthogonalEdgeStyle;rounded=0;orthogonalLoop=1;jettySize=auto;html=1;exitX=0.65;exitY=1;exitDx=0;exitDy=0;entryX=0.175;entryY=0.75;entryDx=0;entryDy=0;exitPerimeter=0;entryPerimeter=0;" edge="1" parent="1" source="sbXcp2H4qCED0aTFGBLQ-34" target="sbXcp2H4qCED0aTFGBLQ-40">
          <mxGeometry relative="1" as="geometry">
            <Array as="points">
              <mxPoint x="1058" y="1550" />
              <mxPoint x="1230" y="1550" />
            </Array>
          </mxGeometry>
        </mxCell>
        <mxCell id="sbXcp2H4qCED0aTFGBLQ-33" value="HDMI" style="edgeLabel;html=1;align=center;verticalAlign=middle;resizable=0;points=[];" vertex="1" connectable="0" parent="sbXcp2H4qCED0aTFGBLQ-32">
          <mxGeometry x="-0.0398" y="-3" relative="1" as="geometry">
            <mxPoint as="offset" />
          </mxGeometry>
        </mxCell>
        <mxCell id="sbXcp2H4qCED0aTFGBLQ-34" value="&lt;span style=&quot;color: rgb(0, 0, 0); font-family: Helvetica; font-size: 12px; font-style: normal; font-variant-ligatures: normal; font-variant-caps: normal; font-weight: 400; letter-spacing: normal; orphans: 2; text-align: center; text-indent: 0px; text-transform: none; widows: 2; word-spacing: 0px; -webkit-text-stroke-width: 0px; white-space: normal; background-color: rgb(251, 251, 251); text-decoration-thickness: initial; text-decoration-style: initial; text-decoration-color: initial; display: inline !important; float: none;&quot;&gt;Desktop&amp;nbsp;&lt;/span&gt;PC&lt;div&gt;(HDMI, DP)&lt;/div&gt;" style="shape=parallelogram;perimeter=parallelogramPerimeter;whiteSpace=wrap;html=1;fixedSize=1;" vertex="1" parent="1">
          <mxGeometry x="980" y="1270" width="120" height="60" as="geometry" />
        </mxCell>
        <mxCell id="sbXcp2H4qCED0aTFGBLQ-35" style="edgeStyle=orthogonalEdgeStyle;rounded=0;orthogonalLoop=1;jettySize=auto;html=1;exitX=0.133;exitY=0.983;exitDx=0;exitDy=0;exitPerimeter=0;entryX=0.5;entryY=0;entryDx=0;entryDy=0;" edge="1" parent="1" source="sbXcp2H4qCED0aTFGBLQ-39" target="sbXcp2H4qCED0aTFGBLQ-5">
          <mxGeometry relative="1" as="geometry">
            <mxPoint x="1420" y="1330" as="sourcePoint" />
            <Array as="points">
              <mxPoint x="1316" y="1380" />
              <mxPoint x="1180" y="1380" />
            </Array>
            <mxPoint x="1160" y="1400" as="targetPoint" />
          </mxGeometry>
        </mxCell>
        <mxCell id="sbXcp2H4qCED0aTFGBLQ-36" value="USB-C" style="edgeLabel;html=1;align=center;verticalAlign=middle;resizable=0;points=[];" vertex="1" connectable="0" parent="sbXcp2H4qCED0aTFGBLQ-35">
          <mxGeometry x="0.0857" y="2" relative="1" as="geometry">
            <mxPoint as="offset" />
          </mxGeometry>
        </mxCell>
        <mxCell id="sbXcp2H4qCED0aTFGBLQ-37" style="edgeStyle=orthogonalEdgeStyle;rounded=0;orthogonalLoop=1;jettySize=auto;html=1;entryX=0.175;entryY=0.25;entryDx=0;entryDy=0;exitX=0.625;exitY=1;exitDx=0;exitDy=0;entryPerimeter=0;" edge="1" parent="1" source="sbXcp2H4qCED0aTFGBLQ-5" target="sbXcp2H4qCED0aTFGBLQ-40">
          <mxGeometry relative="1" as="geometry">
            <Array as="points">
              <mxPoint x="1195" y="1510" />
              <mxPoint x="1270" y="1510" />
            </Array>
            <mxPoint x="1330" y="1520" as="sourcePoint" />
          </mxGeometry>
        </mxCell>
        <mxCell id="sbXcp2H4qCED0aTFGBLQ-38" value="HDMI" style="edgeLabel;html=1;align=center;verticalAlign=middle;resizable=0;points=[];" vertex="1" connectable="0" parent="sbXcp2H4qCED0aTFGBLQ-37">
          <mxGeometry x="0.325" y="3" relative="1" as="geometry">
            <mxPoint as="offset" />
          </mxGeometry>
        </mxCell>
        <mxCell id="sbXcp2H4qCED0aTFGBLQ-39" value="Note PC&lt;div&gt;(USB-C, HDMI)&lt;/div&gt;" style="shape=parallelogram;perimeter=parallelogramPerimeter;whiteSpace=wrap;html=1;fixedSize=1;" vertex="1" parent="1">
          <mxGeometry x="1300" y="1270" width="120" height="60" as="geometry" />
        </mxCell>
        <mxCell id="sbXcp2H4qCED0aTFGBLQ-42" style="edgeStyle=orthogonalEdgeStyle;rounded=0;orthogonalLoop=1;jettySize=auto;html=1;exitX=1;exitY=0.5;exitDx=0;exitDy=0;exitPerimeter=0;entryX=0.5;entryY=0;entryDx=0;entryDy=0;" edge="1" parent="1" source="sbXcp2H4qCED0aTFGBLQ-40" target="sbXcp2H4qCED0aTFGBLQ-26">
          <mxGeometry relative="1" as="geometry" />
        </mxCell>
        <mxCell id="sbXcp2H4qCED0aTFGBLQ-43" value="HDMI" style="edgeLabel;html=1;align=center;verticalAlign=middle;resizable=0;points=[];" vertex="1" connectable="0" parent="sbXcp2H4qCED0aTFGBLQ-42">
          <mxGeometry x="0.04" y="-1" relative="1" as="geometry">
            <mxPoint as="offset" />
          </mxGeometry>
        </mxCell>
        <mxCell id="sbXcp2H4qCED0aTFGBLQ-40" value="SW&lt;div&gt;（HDMI）&lt;/div&gt;" style="shape=xor;whiteSpace=wrap;html=1;direction=south;" vertex="1" parent="1">
          <mxGeometry x="1210" y="1570" width="80" height="50" as="geometry" />
        </mxCell>
        <mxCell id="sbXcp2H4qCED0aTFGBLQ-45" style="edgeStyle=orthogonalEdgeStyle;rounded=0;orthogonalLoop=1;jettySize=auto;html=1;exitX=0.75;exitY=1;exitDx=0;exitDy=0;" edge="1" parent="1" source="sbXcp2H4qCED0aTFGBLQ-46">
          <mxGeometry relative="1" as="geometry">
            <mxPoint x="1070" y="2450" as="targetPoint" />
          </mxGeometry>
        </mxCell>
        <mxCell id="sbXcp2H4qCED0aTFGBLQ-46" value="Main&amp;nbsp;&lt;span style=&quot;background-color: initial;&quot;&gt;Display&lt;/span&gt;&lt;div&gt;&lt;span style=&quot;background-color: initial;&quot;&gt;- I: USB-C, HDMI, DP&lt;/span&gt;&lt;/div&gt;" style="rounded=0;whiteSpace=wrap;html=1;" vertex="1" parent="1">
          <mxGeometry x="970" y="2400" width="120" height="60" as="geometry" />
        </mxCell>
        <mxCell id="sbXcp2H4qCED0aTFGBLQ-47" value="Sub&amp;nbsp;&lt;span style=&quot;background-color: initial;&quot;&gt;Display&lt;br&gt;&lt;/span&gt;&lt;div&gt;&lt;span style=&quot;background-color: initial;&quot;&gt;- I: &lt;/span&gt;&lt;span style=&quot;background-color: initial;&quot;&gt;HDMI, D-sub&lt;/span&gt;&lt;/div&gt;" style="rounded=0;whiteSpace=wrap;html=1;" vertex="1" parent="1">
          <mxGeometry x="1180" y="2400" width="120" height="60" as="geometry" />
        </mxCell>
        <mxCell id="sbXcp2H4qCED0aTFGBLQ-54" value="&lt;span style=&quot;color: rgb(0, 0, 0); font-family: Helvetica; font-size: 12px; font-style: normal; font-variant-ligatures: normal; font-variant-caps: normal; font-weight: 400; letter-spacing: normal; orphans: 2; text-align: center; text-indent: 0px; text-transform: none; widows: 2; word-spacing: 0px; -webkit-text-stroke-width: 0px; white-space: normal; background-color: rgb(251, 251, 251); text-decoration-thickness: initial; text-decoration-style: initial; text-decoration-color: initial; display: inline !important; float: none;&quot;&gt;Desktop&amp;nbsp;&lt;/span&gt;PC&lt;div&gt;&lt;span style=&quot;background-color: initial;&quot;&gt;- I: USB-C&lt;/span&gt;&lt;/div&gt;&lt;div&gt;&lt;div&gt;- O: HDMI, DP&lt;/div&gt;&lt;/div&gt;" style="shape=parallelogram;perimeter=parallelogramPerimeter;whiteSpace=wrap;html=1;fixedSize=1;" vertex="1" parent="1">
          <mxGeometry x="970" y="1950" width="120" height="60" as="geometry" />
        </mxCell>
        <mxCell id="sbXcp2H4qCED0aTFGBLQ-79" style="edgeStyle=orthogonalEdgeStyle;rounded=0;orthogonalLoop=1;jettySize=auto;html=1;exitX=0.5;exitY=1;exitDx=0;exitDy=0;entryX=0.5;entryY=0;entryDx=0;entryDy=0;" edge="1" parent="1" source="sbXcp2H4qCED0aTFGBLQ-59" target="sbXcp2H4qCED0aTFGBLQ-78">
          <mxGeometry relative="1" as="geometry" />
        </mxCell>
        <mxCell id="sbXcp2H4qCED0aTFGBLQ-80" value="USB-C" style="edgeLabel;html=1;align=center;verticalAlign=middle;resizable=0;points=[];" vertex="1" connectable="0" parent="sbXcp2H4qCED0aTFGBLQ-79">
          <mxGeometry x="-0.1333" y="-3" relative="1" as="geometry">
            <mxPoint as="offset" />
          </mxGeometry>
        </mxCell>
        <mxCell id="sbXcp2H4qCED0aTFGBLQ-59" value="Note PC&lt;div&gt;&lt;div&gt;&lt;span style=&quot;background-color: initial;&quot;&gt;- I: USB-C&lt;/span&gt;&lt;/div&gt;&lt;/div&gt;&lt;div&gt;&lt;div&gt;- O:&amp;nbsp;&lt;span style=&quot;background-color: initial;&quot;&gt;USB-C,&amp;nbsp;&lt;/span&gt;&lt;span style=&quot;background-color: initial;&quot;&gt;HDMI&lt;/span&gt;&lt;/div&gt;&lt;/div&gt;" style="shape=parallelogram;perimeter=parallelogramPerimeter;whiteSpace=wrap;html=1;fixedSize=1;" vertex="1" parent="1">
          <mxGeometry x="1290" y="1950" width="140" height="60" as="geometry" />
        </mxCell>
        <mxCell id="sbXcp2H4qCED0aTFGBLQ-68" style="edgeStyle=orthogonalEdgeStyle;rounded=0;orthogonalLoop=1;jettySize=auto;html=1;entryX=0.5;entryY=0;entryDx=0;entryDy=0;" edge="1" parent="1" source="sbXcp2H4qCED0aTFGBLQ-63" target="sbXcp2H4qCED0aTFGBLQ-46">
          <mxGeometry relative="1" as="geometry" />
        </mxCell>
        <mxCell id="sbXcp2H4qCED0aTFGBLQ-71" value="HDMI" style="edgeLabel;html=1;align=center;verticalAlign=middle;resizable=0;points=[];" vertex="1" connectable="0" parent="sbXcp2H4qCED0aTFGBLQ-68">
          <mxGeometry x="0.1053" relative="1" as="geometry">
            <mxPoint as="offset" />
          </mxGeometry>
        </mxCell>
        <mxCell id="sbXcp2H4qCED0aTFGBLQ-69" style="edgeStyle=orthogonalEdgeStyle;rounded=0;orthogonalLoop=1;jettySize=auto;html=1;" edge="1" parent="1" source="sbXcp2H4qCED0aTFGBLQ-63" target="sbXcp2H4qCED0aTFGBLQ-47">
          <mxGeometry relative="1" as="geometry" />
        </mxCell>
        <mxCell id="sbXcp2H4qCED0aTFGBLQ-70" value="HDMI" style="edgeLabel;html=1;align=center;verticalAlign=middle;resizable=0;points=[];" vertex="1" connectable="0" parent="sbXcp2H4qCED0aTFGBLQ-69">
          <mxGeometry x="-0.0125" y="1" relative="1" as="geometry">
            <mxPoint as="offset" />
          </mxGeometry>
        </mxCell>
        <mxCell id="sbXcp2H4qCED0aTFGBLQ-63" value="&lt;div&gt;Hub2&lt;/div&gt;&lt;div&gt;- I: HDMI&lt;/div&gt;&lt;div&gt;- O: HDMIx2&lt;/div&gt;" style="shape=hexagon;perimeter=hexagonPerimeter2;whiteSpace=wrap;html=1;fixedSize=1;" vertex="1" parent="1">
          <mxGeometry x="1090" y="2270" width="120" height="60" as="geometry" />
        </mxCell>
        <mxCell id="sbXcp2H4qCED0aTFGBLQ-83" style="edgeStyle=orthogonalEdgeStyle;rounded=0;orthogonalLoop=1;jettySize=auto;html=1;exitX=1;exitY=0.5;exitDx=0;exitDy=0;exitPerimeter=0;entryX=0.5;entryY=0;entryDx=0;entryDy=0;" edge="1" parent="1" source="sbXcp2H4qCED0aTFGBLQ-74" target="sbXcp2H4qCED0aTFGBLQ-63">
          <mxGeometry relative="1" as="geometry" />
        </mxCell>
        <mxCell id="sbXcp2H4qCED0aTFGBLQ-74" value="INPUT SW&lt;div&gt;I/O: HDMI&lt;/div&gt;" style="shape=xor;whiteSpace=wrap;html=1;direction=south;" vertex="1" parent="1">
          <mxGeometry x="1110" y="2170" width="80" height="60" as="geometry" />
        </mxCell>
        <mxCell id="sbXcp2H4qCED0aTFGBLQ-75" style="edgeStyle=orthogonalEdgeStyle;rounded=0;orthogonalLoop=1;jettySize=auto;html=1;entryX=0.175;entryY=0.75;entryDx=0;entryDy=0;entryPerimeter=0;exitX=0.5;exitY=1;exitDx=0;exitDy=0;" edge="1" parent="1" source="sbXcp2H4qCED0aTFGBLQ-54" target="sbXcp2H4qCED0aTFGBLQ-74">
          <mxGeometry relative="1" as="geometry" />
        </mxCell>
        <mxCell id="sbXcp2H4qCED0aTFGBLQ-77" value="HDMI" style="edgeLabel;html=1;align=center;verticalAlign=middle;resizable=0;points=[];" vertex="1" connectable="0" parent="sbXcp2H4qCED0aTFGBLQ-75">
          <mxGeometry x="0.0419" y="1" relative="1" as="geometry">
            <mxPoint as="offset" />
          </mxGeometry>
        </mxCell>
        <mxCell id="sbXcp2H4qCED0aTFGBLQ-78" value="Hub1&lt;div&gt;- I: USB-C&lt;br&gt;&lt;div&gt;&lt;div&gt;- O:&amp;nbsp;&lt;span style=&quot;background-color: initial;&quot;&gt;USB-C,&amp;nbsp;&lt;/span&gt;&lt;span style=&quot;background-color: initial;&quot;&gt;HDMI&lt;/span&gt;&lt;/div&gt;&lt;/div&gt;&lt;/div&gt;" style="shape=hexagon;perimeter=hexagonPerimeter2;whiteSpace=wrap;html=1;fixedSize=1;" vertex="1" parent="1">
          <mxGeometry x="1160" y="2070" width="140" height="50" as="geometry" />
        </mxCell>
        <mxCell id="sbXcp2H4qCED0aTFGBLQ-81" style="edgeStyle=orthogonalEdgeStyle;rounded=0;orthogonalLoop=1;jettySize=auto;html=1;entryX=0.175;entryY=0.25;entryDx=0;entryDy=0;entryPerimeter=0;" edge="1" parent="1" source="sbXcp2H4qCED0aTFGBLQ-78" target="sbXcp2H4qCED0aTFGBLQ-74">
          <mxGeometry relative="1" as="geometry" />
        </mxCell>
        <mxCell id="sbXcp2H4qCED0aTFGBLQ-82" value="HDMI" style="edgeLabel;html=1;align=center;verticalAlign=middle;resizable=0;points=[];" vertex="1" connectable="0" parent="sbXcp2H4qCED0aTFGBLQ-81">
          <mxGeometry x="0.0274" y="1" relative="1" as="geometry">
            <mxPoint as="offset" />
          </mxGeometry>
        </mxCell>
        <mxCell id="sbXcp2H4qCED0aTFGBLQ-88" value="&lt;span style=&quot;color: rgb(0, 0, 0); font-family: Helvetica; font-size: 12px; font-style: normal; font-variant-ligatures: normal; font-variant-caps: normal; font-weight: 400; letter-spacing: normal; orphans: 2; text-align: center; text-indent: 0px; text-transform: none; widows: 2; word-spacing: 0px; -webkit-text-stroke-width: 0px; white-space: normal; background-color: rgb(251, 251, 251); text-decoration-thickness: initial; text-decoration-style: initial; text-decoration-color: initial; display: inline !important; float: none;&quot;&gt;Desktop&amp;nbsp;&lt;/span&gt;PC&lt;div&gt;&lt;span style=&quot;background-color: initial;&quot;&gt;- I: USB-C&lt;/span&gt;&lt;/div&gt;&lt;div&gt;&lt;div&gt;- O: HDMI, DP&lt;/div&gt;&lt;/div&gt;" style="shape=parallelogram;perimeter=parallelogramPerimeter;whiteSpace=wrap;html=1;fixedSize=1;" vertex="1" parent="1">
          <mxGeometry x="1510" y="1950" width="120" height="60" as="geometry" />
        </mxCell>
        <mxCell id="sbXcp2H4qCED0aTFGBLQ-91" value="Note PC&lt;div&gt;&lt;div&gt;&lt;span style=&quot;background-color: initial;&quot;&gt;- I: USB-C&lt;/span&gt;&lt;/div&gt;&lt;/div&gt;&lt;div&gt;&lt;div&gt;- O:&amp;nbsp;&lt;span style=&quot;background-color: initial;&quot;&gt;USB-C,&amp;nbsp;&lt;/span&gt;&lt;span style=&quot;background-color: initial;&quot;&gt;HDMI&lt;/span&gt;&lt;/div&gt;&lt;/div&gt;" style="shape=parallelogram;perimeter=parallelogramPerimeter;whiteSpace=wrap;html=1;fixedSize=1;" vertex="1" parent="1">
          <mxGeometry x="1830" y="1950" width="140" height="60" as="geometry" />
        </mxCell>
        <mxCell id="sbXcp2H4qCED0aTFGBLQ-106" style="edgeStyle=orthogonalEdgeStyle;rounded=0;orthogonalLoop=1;jettySize=auto;html=1;exitX=0.5;exitY=0;exitDx=0;exitDy=0;entryX=0.5;entryY=1;entryDx=0;entryDy=0;" edge="1" parent="1" source="sbXcp2H4qCED0aTFGBLQ-101" target="sbXcp2H4qCED0aTFGBLQ-91">
          <mxGeometry relative="1" as="geometry">
            <Array as="points">
              <mxPoint x="1770" y="2060" />
              <mxPoint x="1900" y="2060" />
            </Array>
          </mxGeometry>
        </mxCell>
        <mxCell id="sbXcp2H4qCED0aTFGBLQ-112" value="USB-C" style="edgeLabel;html=1;align=center;verticalAlign=middle;resizable=0;points=[];" vertex="1" connectable="0" parent="sbXcp2H4qCED0aTFGBLQ-106">
          <mxGeometry x="0.3716" y="-2" relative="1" as="geometry">
            <mxPoint as="offset" />
          </mxGeometry>
        </mxCell>
        <mxCell id="sbXcp2H4qCED0aTFGBLQ-107" style="edgeStyle=orthogonalEdgeStyle;rounded=0;orthogonalLoop=1;jettySize=auto;html=1;exitX=0.5;exitY=0;exitDx=0;exitDy=0;entryX=0.5;entryY=1;entryDx=0;entryDy=0;" edge="1" parent="1" source="sbXcp2H4qCED0aTFGBLQ-101" target="sbXcp2H4qCED0aTFGBLQ-88">
          <mxGeometry relative="1" as="geometry">
            <Array as="points">
              <mxPoint x="1770" y="2060" />
              <mxPoint x="1570" y="2060" />
            </Array>
          </mxGeometry>
        </mxCell>
        <mxCell id="sbXcp2H4qCED0aTFGBLQ-113" value="USB-C" style="edgeLabel;html=1;align=center;verticalAlign=middle;resizable=0;points=[];" vertex="1" connectable="0" parent="sbXcp2H4qCED0aTFGBLQ-107">
          <mxGeometry x="0.3179" y="-1" relative="1" as="geometry">
            <mxPoint as="offset" />
          </mxGeometry>
        </mxCell>
        <mxCell id="sbXcp2H4qCED0aTFGBLQ-101" value="Hub1&lt;div&gt;- I: USB-C&lt;br&gt;&lt;div&gt;&lt;div&gt;- O:&amp;nbsp;&lt;span style=&quot;background-color: initial;&quot;&gt;USB-C,&amp;nbsp;&lt;/span&gt;&lt;span style=&quot;background-color: initial;&quot;&gt;HDMI&lt;/span&gt;&lt;/div&gt;&lt;/div&gt;&lt;/div&gt;" style="shape=hexagon;perimeter=hexagonPerimeter2;whiteSpace=wrap;html=1;fixedSize=1;" vertex="1" parent="1">
          <mxGeometry x="1700" y="2220" width="140" height="50" as="geometry" />
        </mxCell>
        <mxCell id="sbXcp2H4qCED0aTFGBLQ-105" style="edgeStyle=orthogonalEdgeStyle;rounded=0;orthogonalLoop=1;jettySize=auto;html=1;exitX=0.5;exitY=0;exitDx=0;exitDy=0;entryX=0.5;entryY=1;entryDx=0;entryDy=0;" edge="1" parent="1" source="sbXcp2H4qCED0aTFGBLQ-104" target="sbXcp2H4qCED0aTFGBLQ-101">
          <mxGeometry relative="1" as="geometry" />
        </mxCell>
        <mxCell id="sbXcp2H4qCED0aTFGBLQ-104" value="&lt;div&gt;&lt;span style=&quot;background-color: initial;&quot;&gt;Mouse, Keyboard&lt;/span&gt;&lt;/div&gt;" style="rounded=0;whiteSpace=wrap;html=1;" vertex="1" parent="1">
          <mxGeometry x="1640" y="2394" width="120" height="60" as="geometry" />
        </mxCell>
        <mxCell id="sbXcp2H4qCED0aTFGBLQ-108" value="" style="verticalLabelPosition=bottom;verticalAlign=top;html=1;shape=mxgraph.basic.arc;startAngle=0.5646325133612693;endAngle=0.9809922960760251;" vertex="1" parent="1">
          <mxGeometry x="1700" y="2090" width="20" height="90" as="geometry" />
        </mxCell>
        <mxCell id="sbXcp2H4qCED0aTFGBLQ-109" value="" style="verticalLabelPosition=bottom;verticalAlign=top;html=1;shape=mxgraph.basic.arc;startAngle=0.5199978712176878;endAngle=0.9487918088252166;direction=west;" vertex="1" parent="1">
          <mxGeometry x="1820" y="2090" width="20" height="90" as="geometry" />
        </mxCell>
        <mxCell id="sbXcp2H4qCED0aTFGBLQ-111" value="OUT SW&lt;div&gt;I/O: USB-C&lt;/div&gt;" style="shape=xor;whiteSpace=wrap;html=1;direction=north;" vertex="1" parent="1">
          <mxGeometry x="1730" y="2095" width="80" height="60" as="geometry" />
        </mxCell>
        <mxCell id="sbXcp2H4qCED0aTFGBLQ-115" value="Main&amp;nbsp;&lt;span style=&quot;background-color: initial;&quot;&gt;Display&lt;/span&gt;&lt;div&gt;&lt;span style=&quot;background-color: initial;&quot;&gt;(USB-C, HDMI, DP)&lt;/span&gt;&lt;/div&gt;" style="rounded=0;whiteSpace=wrap;html=1;" vertex="1" parent="1">
          <mxGeometry x="960" y="960" width="120" height="60" as="geometry" />
        </mxCell>
        <mxCell id="sbXcp2H4qCED0aTFGBLQ-116" value="Sub&amp;nbsp;&lt;span style=&quot;background-color: initial;&quot;&gt;Display&lt;/span&gt;&lt;div&gt;&lt;span style=&quot;background-color: initial;&quot;&gt;(HDMI, D-sub)&lt;/span&gt;&lt;/div&gt;" style="rounded=0;whiteSpace=wrap;html=1;" vertex="1" parent="1">
          <mxGeometry x="1190" y="960" width="120" height="60" as="geometry" />
        </mxCell>
        <mxCell id="sbXcp2H4qCED0aTFGBLQ-117" style="edgeStyle=orthogonalEdgeStyle;rounded=0;orthogonalLoop=1;jettySize=auto;html=1;entryX=0.75;entryY=0;entryDx=0;entryDy=0;" edge="1" parent="1" source="sbXcp2H4qCED0aTFGBLQ-119" target="sbXcp2H4qCED0aTFGBLQ-115">
          <mxGeometry relative="1" as="geometry">
            <Array as="points">
              <mxPoint x="1150" y="930" />
              <mxPoint x="1050" y="930" />
            </Array>
          </mxGeometry>
        </mxCell>
        <mxCell id="sbXcp2H4qCED0aTFGBLQ-118" value="HDMI" style="edgeLabel;html=1;align=center;verticalAlign=middle;resizable=0;points=[];" vertex="1" connectable="0" parent="sbXcp2H4qCED0aTFGBLQ-117">
          <mxGeometry x="-0.7238" relative="1" as="geometry">
            <mxPoint as="offset" />
          </mxGeometry>
        </mxCell>
        <mxCell id="sbXcp2H4qCED0aTFGBLQ-119" value="Hub1&lt;div&gt;(HDMI, Dsub)&lt;/div&gt;" style="shape=hexagon;perimeter=hexagonPerimeter2;whiteSpace=wrap;html=1;fixedSize=1;" vertex="1" parent="1">
          <mxGeometry x="1080" y="720" width="120" height="80" as="geometry" />
        </mxCell>
        <mxCell id="sbXcp2H4qCED0aTFGBLQ-120" style="edgeStyle=orthogonalEdgeStyle;rounded=0;orthogonalLoop=1;jettySize=auto;html=1;exitX=0.25;exitY=1;exitDx=0;exitDy=0;entryX=0.25;entryY=0;entryDx=0;entryDy=0;" edge="1" parent="1" source="sbXcp2H4qCED0aTFGBLQ-124" target="sbXcp2H4qCED0aTFGBLQ-115">
          <mxGeometry relative="1" as="geometry">
            <mxPoint x="1040" y="930" as="targetPoint" />
          </mxGeometry>
        </mxCell>
        <mxCell id="sbXcp2H4qCED0aTFGBLQ-121" value="DP" style="edgeLabel;html=1;align=center;verticalAlign=middle;resizable=0;points=[];" vertex="1" connectable="0" parent="sbXcp2H4qCED0aTFGBLQ-120">
          <mxGeometry x="0.2108" y="-2" relative="1" as="geometry">
            <mxPoint as="offset" />
          </mxGeometry>
        </mxCell>
        <mxCell id="sbXcp2H4qCED0aTFGBLQ-124" value="&lt;span style=&quot;color: rgb(0, 0, 0); font-family: Helvetica; font-size: 12px; font-style: normal; font-variant-ligatures: normal; font-variant-caps: normal; font-weight: 400; letter-spacing: normal; orphans: 2; text-align: center; text-indent: 0px; text-transform: none; widows: 2; word-spacing: 0px; -webkit-text-stroke-width: 0px; white-space: normal; background-color: rgb(251, 251, 251); text-decoration-thickness: initial; text-decoration-style: initial; text-decoration-color: initial; display: inline !important; float: none;&quot;&gt;Desktop&amp;nbsp;&lt;/span&gt;PC&lt;div&gt;(HDMI, DP)&lt;/div&gt;" style="shape=parallelogram;perimeter=parallelogramPerimeter;whiteSpace=wrap;html=1;fixedSize=1;" vertex="1" parent="1">
          <mxGeometry x="970" y="610" width="120" height="60" as="geometry" />
        </mxCell>
        <mxCell id="sbXcp2H4qCED0aTFGBLQ-125" style="edgeStyle=orthogonalEdgeStyle;rounded=0;orthogonalLoop=1;jettySize=auto;html=1;entryX=0.625;entryY=0;entryDx=0;entryDy=0;exitX=0.133;exitY=0.983;exitDx=0;exitDy=0;exitPerimeter=0;" edge="1" parent="1" source="sbXcp2H4qCED0aTFGBLQ-129" target="sbXcp2H4qCED0aTFGBLQ-119">
          <mxGeometry relative="1" as="geometry">
            <mxPoint x="1410" y="670" as="sourcePoint" />
            <Array as="points">
              <mxPoint x="1306" y="690" />
              <mxPoint x="1155" y="690" />
            </Array>
          </mxGeometry>
        </mxCell>
        <mxCell id="sbXcp2H4qCED0aTFGBLQ-126" value="USB-C" style="edgeLabel;html=1;align=center;verticalAlign=middle;resizable=0;points=[];" vertex="1" connectable="0" parent="sbXcp2H4qCED0aTFGBLQ-125">
          <mxGeometry x="0.0857" y="2" relative="1" as="geometry">
            <mxPoint as="offset" />
          </mxGeometry>
        </mxCell>
        <mxCell id="sbXcp2H4qCED0aTFGBLQ-129" value="Note PC&lt;div&gt;(USB-C, HDMI)&lt;/div&gt;" style="shape=parallelogram;perimeter=parallelogramPerimeter;whiteSpace=wrap;html=1;fixedSize=1;" vertex="1" parent="1">
          <mxGeometry x="1290" y="610" width="120" height="60" as="geometry" />
        </mxCell>
        <mxCell id="sbXcp2H4qCED0aTFGBLQ-130" value="&lt;u&gt;&lt;font style=&quot;font-size: 24px;&quot;&gt;〇現在の構成&lt;/font&gt;&lt;/u&gt;" style="text;html=1;align=center;verticalAlign=middle;resizable=0;points=[];autosize=1;strokeColor=none;fillColor=none;" vertex="1" parent="1">
          <mxGeometry x="860" y="540" width="170" height="40" as="geometry" />
        </mxCell>
        <mxCell id="sbXcp2H4qCED0aTFGBLQ-131" value="&lt;u&gt;&lt;font style=&quot;font-size: 24px;&quot;&gt;〇ボツ案（ハブが低グレード品でディスプレイサイズの認識不良発生）&lt;/font&gt;&lt;/u&gt;" style="text;html=1;align=center;verticalAlign=middle;resizable=0;points=[];autosize=1;strokeColor=none;fillColor=none;" vertex="1" parent="1">
          <mxGeometry x="880" y="1190" width="790" height="40" as="geometry" />
        </mxCell>
        <mxCell id="sbXcp2H4qCED0aTFGBLQ-133" value="" style="edgeStyle=orthogonalEdgeStyle;rounded=0;orthogonalLoop=1;jettySize=auto;html=1;" edge="1" parent="1" source="sbXcp2H4qCED0aTFGBLQ-132" target="sbXcp2H4qCED0aTFGBLQ-116">
          <mxGeometry relative="1" as="geometry" />
        </mxCell>
        <mxCell id="sbXcp2H4qCED0aTFGBLQ-132" value="SW&lt;div&gt;（HDMI）&lt;/div&gt;" style="shape=xor;whiteSpace=wrap;html=1;direction=south;" vertex="1" parent="1">
          <mxGeometry x="1210" y="880" width="80" height="50" as="geometry" />
        </mxCell>
        <mxCell id="sbXcp2H4qCED0aTFGBLQ-134" style="edgeStyle=orthogonalEdgeStyle;rounded=0;orthogonalLoop=1;jettySize=auto;html=1;entryX=0.175;entryY=0.75;entryDx=0;entryDy=0;entryPerimeter=0;" edge="1" parent="1" source="sbXcp2H4qCED0aTFGBLQ-124" target="sbXcp2H4qCED0aTFGBLQ-132">
          <mxGeometry relative="1" as="geometry">
            <Array as="points">
              <mxPoint x="1040" y="860" />
              <mxPoint x="1230" y="860" />
            </Array>
          </mxGeometry>
        </mxCell>
        <mxCell id="sbXcp2H4qCED0aTFGBLQ-135" value="HDMI" style="edgeLabel;html=1;align=center;verticalAlign=middle;resizable=0;points=[];" vertex="1" connectable="0" parent="sbXcp2H4qCED0aTFGBLQ-134">
          <mxGeometry x="-0.2891" relative="1" as="geometry">
            <mxPoint as="offset" />
          </mxGeometry>
        </mxCell>
        <mxCell id="sbXcp2H4qCED0aTFGBLQ-136" style="edgeStyle=orthogonalEdgeStyle;rounded=0;orthogonalLoop=1;jettySize=auto;html=1;exitX=0.5;exitY=1;exitDx=0;exitDy=0;entryX=0.249;entryY=0.295;entryDx=0;entryDy=0;entryPerimeter=0;" edge="1" parent="1" source="sbXcp2H4qCED0aTFGBLQ-129" target="sbXcp2H4qCED0aTFGBLQ-132">
          <mxGeometry relative="1" as="geometry" />
        </mxCell>
        <mxCell id="sbXcp2H4qCED0aTFGBLQ-137" value="HDMI" style="edgeLabel;html=1;align=center;verticalAlign=middle;resizable=0;points=[];" vertex="1" connectable="0" parent="sbXcp2H4qCED0aTFGBLQ-136">
          <mxGeometry x="0.5331" y="-1" relative="1" as="geometry">
            <mxPoint as="offset" />
          </mxGeometry>
        </mxCell>
      </root>
    </mxGraphModel>
  </diagram>
</mxfile>
